<svg id="Capa_1" enable-background="new 0 0 512 512" height="512" viewBox="0 0 512 512" width="512" xmlns="http://www.w3.org/2000/svg"><g><g><g><path d="m129.855 251.338v32.455c0 70.117 56.217 127.043 125.939 128.057h.413c69.722-1.014 125.939-57.94 125.939-128.057v-32.455zm126.145 101.778c-24.813 0-45-20.187-45-45 0-8.284 6.716-15 15-15s15 6.716 15 15c0 8.271 6.729 15 15 15s15-6.729 15-15c0-8.284 6.716-15 15-15s15 6.716 15 15c0 24.813-20.187 45-45 45z"/></g><g><path d="m503.726 85.718-243.663-84.989c-2.631-.918-5.495-.918-8.126 0l-243.663 84.989c-11.032 3.848-11.032 19.449 0 23.297l119.681 41.744 117.331-28.761c3.506-.859 7.109-1.294 10.714-1.294s7.209.435 10.71 1.293l117.335 28.762 65.39-22.808v38.535c0 8.284 6.716 15 15 15s15-6.716 15-15v-48.999l24.291-8.472c11.032-3.848 11.032-19.449 0-23.297z"/><path d="m382.145 221.338h-252.29v-40.156l122.574-30.046c2.346-.575 4.796-.575 7.142 0l122.574 30.046z"/></g></g><path d="m394.466 411.46h-47.045c-26.219 19.256-57.677 29.905-90.778 30.387l-.218.003-1.067-.003c-33.101-.482-64.558-11.131-90.778-30.387h-47.045c-29.418 0-53.266 23.848-53.266 53.266v47.233h56.231v-30.293c0-8.284 6.716-15 15-15s15 6.716 15 15v30.293h211v-30.293c0-8.284 6.716-15 15-15s15 6.716 15 15v30.293h56.231v-47.233c0-29.418-23.848-53.266-53.265-53.266z"/></g></svg>